# xmcd
#
# Track frame offsets: 
#        150
#        14738
#        35551
#        52847
#        74354
#        92452
#        113857
#        133183
#        150487
#        167003
#
# Disc length: 2447 seconds
#
# Revision: 0
# Processed by: cddbd v1.5.1PL2 Copyright (c) Steve Scherf et al.
# Submitted via: ExactAudioCopy v0.95a5
#
DISCID=7e098d0a
DTITLE=孙燕姿 - 风筝
DYEAR=2001
DGENRE=Pop
TTITLE0=绿光
TTITLE1=风筝
TTITLE2=任性
TTITLE3=逃亡
TTITLE4=不是真的爱我
TTITLE5=真的
TTITLE6=练习
TTITLE7=爱情字典
TTITLE8=随堂测验
TTITLE9=我是我
EXTD=
EXTT0=
EXTT1=
EXTT2=
EXTT3=
EXTT4=
EXTT5=
EXTT6=
EXTT7=
EXTT8=
EXTT9=
PLAYORDER=
